<?xml version="1.0" standalone="no"?>
<!DOCTYPE svg PUBLIC "-//W3C//DTD SVG 20010904//EN"
 "http://www.w3.org/TR/2001/REC-SVG-20010904/DTD/svg10.dtd">
<svg version="1.0" xmlns="http://www.w3.org/2000/svg"
 width="300.000000pt" height="300.000000pt" viewBox="0 0 300.000000 300.000000"
 preserveAspectRatio="xMidYMid meet">
<metadata>
Created by potrace 1.11, written by Peter Selinger 2001-2013
</metadata>
<g transform="translate(0.000000,300.000000) scale(0.100000,-0.100000)"
fill="#000000" stroke="none">
<path d="M838 2977 c-5 -31 -2 -227 6 -322 9 -104 34 -283 41 -296 2 -3 7 -28
11 -55 12 -93 136 -510 158 -531 6 -6 251 51 432 101 243 67 1086 339 1134
366 11 7 6 13 -25 25 -22 10 -220 93 -440 185 -220 92 -564 236 -765 320 -201
84 -383 160 -405 170 -22 9 -47 20 -55 23 -8 3 -31 12 -51 21 -36 15 -37 15
-41 -7z"/>
<path d="M713 2798 c-10 -30 -336 -840 -368 -913 -27 -62 -26 -64 9 -79 88
-37 212 -58 359 -62 81 -3 152 -2 156 1 5 3 -6 49 -24 102 -105 305 -146 623
-120 911 3 39 4 72 2 72 -2 0 -8 -15 -14 -32z"/>
<path d="M2530 2147 c-412 -204 -787 -349 -1135 -437 -87 -22 -174 -43 -194
-46 -20 -4 -43 -8 -51 -9 -8 -2 -21 -4 -27 -4 -22 -2 -15 -24 50 -151 89 -175
107 -207 212 -365 272 -408 615 -746 1070 -1054 65 -44 120 -79 122 -77 4 4
11 154 28 591 3 66 7 179 10 250 3 72 8 180 10 240 2 61 7 173 10 250 4 77 8
192 10 255 2 63 6 174 10 245 14 318 15 375 8 374 -5 0 -64 -28 -133 -62z"/>
<path d="M361 1713 c102 -168 142 -229 226 -341 364 -484 822 -874 1338 -1137
77 -39 181 -88 230 -109 50 -20 99 -41 110 -46 90 -41 130 -48 78 -15 -54 35
-288 204 -308 222 -11 10 -30 26 -43 34 -21 15 -98 82 -207 179 -326 292 -631
680 -799 1018 l-54 108 -104 1 c-187 1 -323 31 -437 95 l-54 30 24 -39z"/>
</g>
</svg>
